<?xml version="1.0" encoding="UTF-8" ?>
<!DOCTYPE svg PUBLIC "-//W3C//DTD SVG 1.1//EN" "http://www.w3.org/Graphics/SVG/1.1/DTD/svg11.dtd">
<svg width="512pt" height="512pt" viewBox="0 0 512 512" version="1.1" xmlns="http://www.w3.org/2000/svg">
<path fill="#5cc4ab" d=" M 0.00 0.00 L 512.00 0.00 L 512.00 512.00 L 0.00 512.00 L 0.00 0.00 Z" />
<path fill="#f7bf3d" d=" M 14.48 175.89 C 107.02 134.48 199.33 92.54 291.81 51.02 C 316.62 62.66 341.60 73.92 366.42 85.56 C 410.14 105.25 453.86 124.96 497.59 144.64 C 474.55 155.45 451.33 165.91 428.32 176.81 C 396.02 162.05 363.63 147.48 331.31 132.77 C 317.89 126.85 304.68 120.41 291.14 114.80 C 287.39 115.91 283.90 117.70 280.35 119.33 C 214.98 149.01 149.46 178.37 84.13 208.13 C 61.03 197.82 38.21 186.88 15.13 176.51 L 14.48 175.89 Z" />
<path fill="#ec8e25" d=" M 280.35 119.33 C 283.90 117.70 287.39 115.91 291.14 114.80 C 291.65 135.70 291.10 156.62 291.42 177.53 C 291.39 198.24 291.65 218.99 291.28 239.68 C 270.31 249.11 249.53 258.97 228.63 268.56 C 226.60 269.46 224.63 270.50 222.72 271.64 L 222.30 271.42 C 221.80 250.92 222.49 230.37 221.92 209.87 C 215.16 212.15 208.92 215.72 202.29 218.34 C 185.76 225.73 169.22 233.10 152.67 240.44 C 129.92 250.72 107.12 260.88 84.26 270.91 C 84.26 249.98 84.52 229.05 84.13 208.13 C 149.46 178.37 214.98 149.01 280.35 119.33 Z" />
<path fill="#e55c2d" d=" M 291.14 114.80 C 304.68 120.41 317.89 126.85 331.31 132.77 C 363.63 147.48 396.02 162.05 428.32 176.81 C 428.18 197.61 428.33 218.41 428.24 239.22 C 382.71 218.49 337.00 198.14 291.42 177.53 C 291.10 156.62 291.65 135.70 291.14 114.80 Z" />
<path fill="#ec8e25" d=" M 428.32 176.81 C 451.33 165.91 474.55 155.45 497.59 144.64 C 497.62 165.65 497.64 186.66 497.58 207.66 C 474.47 218.19 451.38 228.77 428.24 239.22 C 428.33 218.41 428.18 197.61 428.32 176.81 Z" />
<path fill="#e55c2d" d=" M 15.13 176.51 C 38.21 186.88 61.03 197.82 84.13 208.13 C 84.52 229.05 84.26 249.98 84.26 270.91 C 61.31 260.10 38.41 249.17 15.43 238.44 C 14.86 237.04 15.25 235.47 15.14 234.01 C 15.12 214.85 15.13 195.68 15.13 176.51 Z" />
<path fill="#e55c2d" d=" M 202.29 218.34 C 208.92 215.72 215.16 212.15 221.92 209.87 C 222.49 230.37 221.80 250.92 222.30 271.42 L 222.72 271.64 C 245.61 282.08 268.37 292.79 291.25 303.23 C 291.30 323.95 291.58 344.70 291.12 365.40 C 288.08 365.16 285.43 363.49 282.70 362.31 C 264.53 353.78 246.23 345.52 228.06 336.97 C 226.24 336.09 224.39 335.12 222.33 335.05 C 222.26 373.04 222.34 411.04 222.31 449.04 C 222.19 452.86 222.83 456.81 221.58 460.51 C 198.69 449.84 175.95 438.84 153.17 427.93 C 153.16 370.28 153.17 312.63 153.16 254.98 C 152.87 250.15 153.78 245.15 152.67 240.44 C 169.22 233.10 185.76 225.73 202.29 218.34 Z" />
<path fill="#f7bf3d" d=" M 228.63 268.56 C 249.53 258.97 270.31 249.11 291.28 239.68 L 291.84 239.46 C 314.62 250.31 337.54 260.86 360.43 271.47 C 337.21 281.70 314.36 292.75 291.25 303.23 C 268.37 292.79 245.61 282.08 222.72 271.64 C 224.63 270.50 226.60 269.46 228.63 268.56 Z" />
<path fill="#ec8e25" d=" M 291.25 303.23 C 314.36 292.75 337.21 281.70 360.43 271.47 C 360.44 292.38 360.45 313.30 360.43 334.21 C 337.52 345.06 314.34 355.40 291.46 366.29 C 291.43 387.19 291.49 408.08 291.43 428.97 C 271.73 438.08 252.03 447.19 232.34 456.31 C 228.67 457.79 225.22 459.96 221.44 461.06 L 221.58 460.51 C 222.83 456.81 222.19 452.86 222.31 449.04 C 222.34 411.04 222.26 373.04 222.33 335.05 C 224.39 335.12 226.24 336.09 228.06 336.97 C 246.23 345.52 264.53 353.78 282.70 362.31 C 285.43 363.49 288.08 365.16 291.12 365.40 C 291.58 344.70 291.30 323.95 291.25 303.23 Z" />
</svg>
